<svg width="25" height="24" viewBox="0 0 25 24" fill="none" xmlns="http://www.w3.org/2000/svg">
<path d="M21.2916 2.625H4.04163C3.62678 2.625 3.29163 2.96016 3.29163 3.375V20.625C3.29163 21.0398 3.62678 21.375 4.04163 21.375H21.2916C21.7065 21.375 22.0416 21.0398 22.0416 20.625V3.375C22.0416 2.96016 21.7065 2.625 21.2916 2.625ZM19.126 8.09766H17.6283C16.4541 8.09766 16.2268 8.65547 16.2268 9.47578V11.2828H19.0299L18.6643 14.1117H16.2268V21.375H13.3041V14.1141H10.8596V11.2828H13.3041V9.19687C13.3041 6.77578 14.783 5.45625 16.944 5.45625C17.9799 5.45625 18.8682 5.53359 19.1283 5.56875V8.09766H19.126Z" fill="#200394"/>
</svg>
