<svg width="128" height="48" viewBox="0 0 128 48" fill="none" xmlns="http://www.w3.org/2000/svg">
<path d="M5.6418 23.9999V9.41912H0.659424V6.90351H13.7748V9.41912H8.768V23.9999H5.6418Z" fill="#200394"/>
<path d="M16.0174 23.9999V6.41504H19.1436V13.7421C19.5506 13.0745 20.0961 12.5535 20.7799 12.179C21.4801 11.7882 22.2779 11.5928 23.1734 11.5928C24.6714 11.5928 25.8274 12.065 26.6415 13.0094C27.4719 13.9537 27.8871 15.3377 27.8871 17.1613V23.9999H24.7854V17.4544C24.7854 16.4124 24.5737 15.6145 24.1504 15.0609C23.7433 14.5073 23.092 14.2305 22.1965 14.2305C21.3172 14.2305 20.5845 14.5399 19.9984 15.1586C19.4285 15.7773 19.1436 16.6403 19.1436 17.7475V23.9999H16.0174Z" fill="#200394"/>
<path d="M36.7626 24.293C35.5414 24.293 34.4586 24.0325 33.5143 23.5114C32.5699 22.9904 31.829 22.2577 31.2917 21.3133C30.7544 20.3689 30.4858 19.278 30.4858 18.0406C30.4858 16.7868 30.7463 15.6715 31.2673 14.6946C31.8046 13.7176 32.5373 12.9605 33.4654 12.4232C34.4098 11.8696 35.517 11.5928 36.787 11.5928C37.9756 11.5928 39.0258 11.8533 39.9376 12.3744C40.8494 12.8954 41.5577 13.6118 42.0624 14.5236C42.5835 15.4191 42.844 16.4205 42.844 17.5277C42.844 17.7068 42.8359 17.894 42.8196 18.0894C42.8196 18.2848 42.8114 18.4883 42.7951 18.7H33.5875C33.6527 19.6444 33.9783 20.3852 34.5645 20.9225C35.1669 21.4599 35.8915 21.7285 36.7381 21.7285C37.3732 21.7285 37.9023 21.5901 38.3257 21.3133C38.7653 21.0202 39.0909 20.6457 39.3026 20.1898H42.4776C42.2497 20.9551 41.8671 21.6552 41.3297 22.2903C40.8087 22.909 40.1574 23.3974 39.3759 23.7557C38.6106 24.1139 37.7395 24.293 36.7626 24.293ZM36.787 14.1328C36.0217 14.1328 35.346 14.3526 34.7598 14.7923C34.1737 15.2156 33.7992 15.8669 33.6364 16.7461H39.669C39.6201 15.9483 39.327 15.3133 38.7897 14.8411C38.2524 14.3689 37.5848 14.1328 36.787 14.1328Z" fill="#200394"/>
<path d="M51.3662 23.9999V6.90351H58.2292C60.004 6.90351 61.3554 7.3187 62.2835 8.1491C63.2279 8.96321 63.7001 10.0134 63.7001 11.2997C63.7001 12.3744 63.407 13.2373 62.8208 13.8886C62.2509 14.5236 61.5508 14.9551 60.7204 15.183C61.6973 15.3784 62.5033 15.8669 63.1383 16.6484C63.7733 17.4137 64.0908 18.3092 64.0908 19.335C64.0908 20.6864 63.6024 21.8018 62.6254 22.681C61.6485 23.5603 60.2645 23.9999 58.4735 23.9999H51.3662ZM54.4924 14.084H57.7652C58.6444 14.084 59.3201 13.8805 59.7923 13.4734C60.2645 13.0663 60.5006 12.4883 60.5006 11.7393C60.5006 11.0229 60.2645 10.4612 59.7923 10.0541C59.3364 9.63079 58.6444 9.41912 57.7163 9.41912H54.4924V14.084ZM54.4924 21.4599H57.985C58.9131 21.4599 59.6295 21.2482 60.1342 20.8248C60.6553 20.3852 60.9158 19.7746 60.9158 18.9931C60.9158 18.1953 60.6471 17.5684 60.1098 17.1125C59.5725 16.6566 58.8479 16.4286 57.9361 16.4286H54.4924V21.4599Z" fill="#200394"/>
<path d="M68.3859 10.0053C67.816 10.0053 67.3439 9.83432 66.9694 9.49239C66.6112 9.15046 66.432 8.71898 66.432 8.19795C66.432 7.67692 66.6112 7.25358 66.9694 6.92793C67.3439 6.586 67.816 6.41504 68.3859 6.41504C68.9558 6.41504 69.4198 6.586 69.7781 6.92793C70.1525 7.25358 70.3398 7.67692 70.3398 8.19795C70.3398 8.71898 70.1525 9.15046 69.7781 9.49239C69.4198 9.83432 68.9558 10.0053 68.3859 10.0053ZM66.8228 23.9999V11.8859H69.949V23.9999H66.8228Z" fill="#200394"/>
<path d="M78.3409 20.3852C77.7548 20.3852 77.2093 20.3201 76.7046 20.1898L75.8009 21.0935C76.0777 21.24 76.4522 21.3622 76.9244 21.4599C77.3966 21.5576 78.1618 21.6552 79.2202 21.7529C80.8321 21.8995 82.0045 22.2821 82.7372 22.9008C83.4699 23.5196 83.8362 24.3744 83.8362 25.4653C83.8362 26.1817 83.6408 26.8574 83.25 27.4924C82.8593 28.1437 82.2568 28.6648 81.4427 29.0555C80.6286 29.4626 79.5865 29.6661 78.3165 29.6661C76.5906 29.6661 75.1985 29.3405 74.1401 28.6892C73.0818 28.0542 72.5526 27.0935 72.5526 25.8072C72.5526 24.7163 73.0818 23.7719 74.1401 22.9741C73.8145 22.8276 73.5295 22.6729 73.2853 22.5101C73.0573 22.3472 72.8538 22.1763 72.6747 21.9972V21.4354L74.7995 19.1885C73.8552 18.3581 73.383 17.2916 73.383 15.989C73.383 15.1749 73.5784 14.4341 73.9692 13.7665C74.3762 13.0989 74.9461 12.5697 75.6788 12.179C76.4115 11.7882 77.2989 11.5928 78.3409 11.5928C79.0248 11.5928 79.6598 11.6905 80.246 11.8859H84.8376V13.7909L82.7616 13.9374C83.0872 14.5562 83.25 15.24 83.25 15.989C83.25 16.8031 83.0547 17.544 82.6639 18.2115C82.2731 18.8791 81.7032 19.4083 80.9542 19.7991C80.2215 20.1898 79.3504 20.3852 78.3409 20.3852ZM78.3409 17.9917C78.976 17.9917 79.497 17.8208 79.904 17.4788C80.3274 17.1369 80.539 16.6484 80.539 16.0134C80.539 15.3784 80.3274 14.89 79.904 14.548C79.497 14.2061 78.976 14.0351 78.3409 14.0351C77.6734 14.0351 77.1361 14.2061 76.729 14.548C76.3219 14.89 76.1184 15.3784 76.1184 16.0134C76.1184 16.6484 76.3219 17.1369 76.729 17.4788C77.1361 17.8208 77.6734 17.9917 78.3409 17.9917ZM75.4101 25.4897C75.4101 26.0922 75.6869 26.5399 76.2405 26.833C76.8104 27.1424 77.5024 27.2971 78.3165 27.2971C79.0981 27.2971 79.7331 27.1342 80.2215 26.8086C80.71 26.4992 80.9542 26.0759 80.9542 25.5386C80.9542 25.0989 80.7914 24.7326 80.4658 24.4395C80.1564 24.1464 79.5295 23.9673 78.5852 23.9022C77.9176 23.8534 77.2989 23.7801 76.729 23.6824C76.2568 23.9429 75.9149 24.2278 75.7032 24.5372C75.5078 24.8466 75.4101 25.1641 75.4101 25.4897Z" fill="#200394"/>
<path d="M100.752 24.293C99.0264 24.293 97.5447 23.9266 96.3072 23.1939C95.0698 22.4449 94.1173 21.411 93.4497 20.0921C92.7821 18.757 92.4483 17.2183 92.4483 15.4761C92.4483 13.7339 92.7821 12.1952 93.4497 10.8601C94.1173 9.52495 95.0698 8.48289 96.3072 7.7339C97.5447 6.98492 99.0264 6.61043 100.752 6.61043C102.804 6.61043 104.481 7.12332 105.784 8.1491C107.102 9.1586 107.925 10.5833 108.25 12.4232H104.807C104.595 11.4951 104.139 10.7705 103.439 10.2495C102.755 9.7122 101.843 9.44354 100.703 9.44354C99.1241 9.44354 97.8866 9.98086 96.9911 11.0555C96.0955 12.1301 95.6478 13.6037 95.6478 15.4761C95.6478 17.3486 96.0955 18.8221 96.9911 19.8968C97.8866 20.9551 99.1241 21.4843 100.703 21.4843C101.843 21.4843 102.755 21.24 103.439 20.7516C104.139 20.2468 104.595 19.5548 104.807 18.6756H108.25C107.925 20.4341 107.102 21.8099 105.784 22.8031C104.481 23.7964 102.804 24.293 100.752 24.293Z" fill="#200394"/>
<path d="M110.358 12.9117L111.701 6.90351H114.999L112.507 12.9117H110.358Z" fill="#200394"/>
<path d="M121.151 24.293C120.076 24.293 119.132 24.122 118.317 23.7801C117.503 23.4219 116.852 22.9334 116.364 22.3147C115.875 21.696 115.582 20.9795 115.484 20.1654H118.635C118.733 20.6376 118.993 21.0447 119.417 21.3866C119.856 21.7122 120.418 21.8751 121.102 21.8751C121.786 21.8751 122.282 21.7367 122.592 21.4599C122.917 21.1831 123.08 20.8656 123.08 20.5073C123.08 19.9863 122.852 19.6362 122.396 19.4571C121.94 19.2618 121.305 19.0745 120.491 18.8954C119.97 18.7814 119.441 18.643 118.904 18.4802C118.366 18.3174 117.87 18.1139 117.414 17.8696C116.974 17.6091 116.616 17.2835 116.339 16.8927C116.062 16.4856 115.924 15.989 115.924 15.4029C115.924 14.3282 116.347 13.4246 117.194 12.6919C118.057 11.9592 119.262 11.5928 120.809 11.5928C122.242 11.5928 123.381 11.9266 124.228 12.5942C125.091 13.2617 125.604 14.1817 125.767 15.354H122.811C122.632 14.4585 121.957 14.0107 120.784 14.0107C120.198 14.0107 119.742 14.1247 119.417 14.3526C119.107 14.5806 118.952 14.8655 118.952 15.2075C118.952 15.5657 119.189 15.8506 119.661 16.0623C120.133 16.274 120.76 16.4693 121.541 16.6484C122.388 16.8438 123.161 17.0636 123.862 17.3079C124.578 17.5358 125.148 17.8859 125.571 18.3581C125.995 18.814 126.206 19.4734 126.206 20.3364C126.223 21.0854 126.027 21.7611 125.62 22.3635C125.213 22.966 124.627 23.4382 123.862 23.7801C123.096 24.122 122.193 24.293 121.151 24.293Z" fill="#200394"/>
<path d="M8.39366 44.1492C7.53126 44.1492 6.78496 43.9627 6.15474 43.5895C5.53282 43.2081 5.05187 42.6815 4.71188 42.0098C4.3719 41.3299 4.2019 40.5462 4.2019 39.659C4.2019 38.7634 4.3719 37.9798 4.71188 37.3081C5.05187 36.6281 5.53282 36.0974 6.15474 35.716C6.78496 35.3345 7.53126 35.1438 8.39366 35.1438C9.41362 35.1438 10.247 35.3926 10.8938 35.8901C11.5406 36.3876 11.9511 37.0842 12.1252 37.9798H10.6575C10.5414 37.4739 10.2926 37.0718 9.91115 36.7732C9.52971 36.4747 9.01973 36.3255 8.38122 36.3255C7.51053 36.3255 6.82227 36.624 6.31644 37.221C5.81061 37.8098 5.5577 38.6224 5.5577 39.659C5.5577 40.6872 5.81061 41.4957 6.31644 42.0845C6.82227 42.6732 7.51053 42.9676 8.38122 42.9676C9.01973 42.9676 9.52971 42.8266 9.91115 42.5447C10.2926 42.2627 10.5414 41.8772 10.6575 41.3879H12.1252C11.9511 42.2503 11.5406 42.9261 10.8938 43.4154C10.247 43.9046 9.41362 44.1492 8.39366 44.1492Z" fill="#200394" fill-opacity="0.6"/>
<path d="M17.5921 44.1492C16.7297 44.1492 15.9751 43.9585 15.3283 43.5771C14.6815 43.1956 14.1757 42.6691 13.8108 41.9974C13.4459 41.3174 13.2635 40.5338 13.2635 39.6465C13.2635 38.7592 13.4459 37.9798 13.8108 37.3081C14.1757 36.6281 14.6815 36.0974 15.3283 35.716C15.9751 35.3345 16.7297 35.1438 17.5921 35.1438C18.4545 35.1438 19.2091 35.3345 19.8559 35.716C20.5027 36.0974 21.0044 36.6281 21.3609 37.3081C21.7258 37.9798 21.9082 38.7592 21.9082 39.6465C21.9082 40.5338 21.7258 41.3174 21.3609 41.9974C21.0044 42.6691 20.5027 43.1956 19.8559 43.5771C19.2091 43.9585 18.4545 44.1492 17.5921 44.1492ZM17.5921 42.9676C18.1891 42.9676 18.7074 42.8349 19.1469 42.5696C19.5947 42.3042 19.943 41.9228 20.1917 41.4252C20.4405 40.9277 20.5649 40.3348 20.5649 39.6465C20.5649 38.9583 20.4405 38.3654 20.1917 37.8678C19.943 37.3703 19.5947 36.9888 19.1469 36.7235C18.7074 36.4581 18.1891 36.3255 17.5921 36.3255C16.995 36.3255 16.4726 36.4581 16.0248 36.7235C15.5771 36.9888 15.2288 37.3703 14.98 37.8678C14.7395 38.3654 14.6193 38.9583 14.6193 39.6465C14.6193 40.3348 14.7395 40.9277 14.98 41.4252C15.2288 41.9228 15.5771 42.3042 16.0248 42.5696C16.4726 42.8349 16.995 42.9676 17.5921 42.9676Z" fill="#200394" fill-opacity="0.6"/>
<path d="M25.636 44L22.4144 35.2931H23.82L26.432 42.6318L29.0566 35.2931H30.4497L27.2281 44H25.636Z" fill="#200394" fill-opacity="0.6"/>
<path d="M31.5641 44V35.2931H32.8825V44H31.5641Z" fill="#200394" fill-opacity="0.6"/>
<path d="M34.6494 44V35.2931H37.4729C38.4929 35.2931 39.3304 35.4713 39.9855 35.8279C40.6489 36.1845 41.1381 36.6903 41.4532 37.3454C41.7766 37.9922 41.9383 38.7634 41.9383 39.659C41.9383 40.5462 41.7766 41.3174 41.4532 41.9725C41.1381 42.6193 40.6489 43.121 39.9855 43.4776C39.3304 43.8258 38.4929 44 37.4729 44H34.6494ZM35.9679 42.8805H37.4232C38.2109 42.8805 38.8329 42.752 39.2889 42.4949C39.7533 42.2379 40.085 41.8689 40.284 41.3879C40.4913 40.907 40.595 40.3306 40.595 39.659C40.595 38.9873 40.4913 38.4068 40.284 37.9176C40.085 37.4283 39.7533 37.0552 39.2889 36.7981C38.8329 36.5328 38.2109 36.4001 37.4232 36.4001H35.9679V42.8805Z" fill="#200394" fill-opacity="0.6"/>
<path d="M43.221 40.9401V39.8331H48.2835V40.9401H43.221Z" fill="#200394" fill-opacity="0.6"/>
<path d="M50.7529 44V36.7857L49.3474 37.1091V36.1389L51.2753 35.2931H52.1211V44H50.7529Z" fill="#200394" fill-opacity="0.6"/>
<path d="M56.8132 44.1492C56.241 44.1492 55.7517 44.0373 55.3454 43.8134C54.9391 43.5895 54.6198 43.291 54.3877 42.9178C54.1638 42.5447 54.0269 42.1384 53.9772 41.6989H55.2086C55.2832 42.1301 55.4615 42.4618 55.7434 42.6939C56.0254 42.9261 56.3861 43.0422 56.8256 43.0422C57.4309 43.0422 57.9285 42.7603 58.3182 42.1964C58.7162 41.6242 58.9277 40.7494 58.9526 39.5719C58.7536 39.9368 58.4426 40.2477 58.0197 40.5048C57.6051 40.7618 57.1241 40.8904 56.5768 40.8904C56.0876 40.8904 55.6274 40.7743 55.1962 40.5421C54.765 40.3099 54.4167 39.9865 54.1513 39.5719C53.886 39.149 53.7533 38.6514 53.7533 38.0793C53.7533 37.5734 53.8777 37.0966 54.1264 36.6489C54.3752 36.2011 54.7235 35.8404 55.1713 35.5667C55.6274 35.2848 56.1664 35.1438 56.7883 35.1438C57.4268 35.1438 57.9658 35.264 58.4053 35.5045C58.8448 35.745 59.1972 36.0642 59.4625 36.4623C59.7279 36.8603 59.9186 37.3081 60.0347 37.8056C60.1591 38.3032 60.2213 38.8131 60.2213 39.3356C60.2213 40.2975 60.0845 41.1391 59.8108 41.8606C59.5455 42.582 59.1599 43.1459 58.654 43.5522C58.1482 43.9502 57.5346 44.1492 56.8132 44.1492ZM56.8753 39.7585C57.2236 39.7585 57.5346 39.6797 57.8082 39.5221C58.0819 39.3646 58.2975 39.1573 58.455 38.9002C58.6209 38.6349 58.7038 38.3446 58.7038 38.0295C58.7038 37.6895 58.6209 37.391 58.455 37.134C58.2975 36.8686 58.0777 36.6613 57.7958 36.512C57.5221 36.3628 57.2112 36.2881 56.8629 36.2881C56.5146 36.2881 56.2037 36.3628 55.93 36.512C55.6564 36.6613 55.4366 36.8686 55.2708 37.134C55.1132 37.391 55.0345 37.6854 55.0345 38.0171C55.0345 38.5478 55.2086 38.9707 55.5569 39.2858C55.9051 39.6009 56.3446 39.7585 56.8753 39.7585Z" fill="#200394" fill-opacity="0.6"/>
<path d="M64.7463 40.9401V39.8331H67.0971V37.6315H68.2415V39.8331H70.5923V40.9401H68.2415V43.1542H67.0971V40.9401H64.7463Z" fill="#200394" fill-opacity="0.6"/>
<path d="M79.2345 44.1492C78.3721 44.1492 77.6258 43.9627 76.9956 43.5895C76.3737 43.2081 75.8927 42.6815 75.5527 42.0098C75.2128 41.3299 75.0428 40.5462 75.0428 39.659C75.0428 38.7634 75.2128 37.9798 75.5527 37.3081C75.8927 36.6281 76.3737 36.0974 76.9956 35.716C77.6258 35.3345 78.3721 35.1438 79.2345 35.1438C80.2545 35.1438 81.0879 35.3926 81.7347 35.8901C82.3815 36.3876 82.7919 37.0842 82.9661 37.9798H81.4983C81.3822 37.4739 81.1335 37.0718 80.752 36.7732C80.3706 36.4747 79.8606 36.3255 79.2221 36.3255C78.3514 36.3255 77.6631 36.624 77.1573 37.221C76.6515 37.8098 76.3986 38.6224 76.3986 39.659C76.3986 40.6872 76.6515 41.4957 77.1573 42.0845C77.6631 42.6732 78.3514 42.9676 79.2221 42.9676C79.8606 42.9676 80.3706 42.8266 80.752 42.5447C81.1335 42.2627 81.3822 41.8772 81.4983 41.3879H82.9661C82.7919 42.2503 82.3815 42.9261 81.7347 43.4154C81.0879 43.9046 80.2545 44.1492 79.2345 44.1492Z" fill="#200394" fill-opacity="0.6"/>
<path d="M83.6977 44L86.9068 35.2931H88.3497L91.5339 44H90.1408L89.3945 41.873H85.8371L85.0908 44H83.6977ZM86.2103 40.8282H89.0214L87.6158 36.8603L86.2103 40.8282Z" fill="#200394" fill-opacity="0.6"/>
<path d="M92.7481 44V35.2931H94.0666L98.4325 41.8481V35.2931H99.751V44H98.4325L94.0666 37.4449V44H92.7481Z" fill="#200394" fill-opacity="0.6"/>
<path d="M105.399 44.1492C104.537 44.1492 103.79 43.9627 103.16 43.5895C102.538 43.2081 102.057 42.6815 101.717 42.0098C101.377 41.3299 101.207 40.5462 101.207 39.659C101.207 38.7634 101.377 37.9798 101.717 37.3081C102.057 36.6281 102.538 36.0974 103.16 35.716C103.79 35.3345 104.537 35.1438 105.399 35.1438C106.419 35.1438 107.252 35.3926 107.899 35.8901C108.546 36.3876 108.956 37.0842 109.131 37.9798H107.663C107.547 37.4739 107.298 37.0718 106.916 36.7732C106.535 36.4747 106.025 36.3255 105.387 36.3255C104.516 36.3255 103.828 36.624 103.322 37.221C102.816 37.8098 102.563 38.6224 102.563 39.659C102.563 40.6872 102.816 41.4957 103.322 42.0845C103.828 42.6732 104.516 42.9676 105.387 42.9676C106.025 42.9676 106.535 42.8266 106.916 42.5447C107.298 42.2627 107.547 41.8772 107.663 41.3879H109.131C108.956 42.2503 108.546 42.9261 107.899 43.4154C107.252 43.9046 106.419 44.1492 105.399 44.1492Z" fill="#200394" fill-opacity="0.6"/>
<path d="M110.58 44V35.2931H116.115V36.3628H111.898V39.0744H115.742V40.1192H111.898V42.9303H116.115V44H110.58Z" fill="#200394" fill-opacity="0.6"/>
<path d="M117.686 44V35.2931H120.683C121.372 35.2931 121.936 35.4092 122.375 35.6413C122.823 35.8735 123.155 36.1886 123.37 36.5867C123.586 36.9764 123.694 37.4117 123.694 37.8927C123.694 38.4317 123.548 38.9209 123.258 39.3604C122.976 39.7999 122.533 40.115 121.927 40.3058L123.781 44H122.251L120.559 40.4923H119.004V44H117.686ZM119.004 39.4973H120.609C121.206 39.4973 121.641 39.3521 121.915 39.0619C122.197 38.7717 122.338 38.3944 122.338 37.93C122.338 37.4656 122.201 37.0966 121.927 36.823C121.654 36.5411 121.21 36.4001 120.596 36.4001H119.004V39.4973Z" fill="#200394" fill-opacity="0.6"/>
</svg>
