<svg width="254" height="64" viewBox="0 0 254 64" fill="none" xmlns="http://www.w3.org/2000/svg">
<path d="M11.4995 48.0003V18.8387H1.63855V13.8075H27.5961V18.8387H17.6868V48.0003H11.4995Z" fill="#200394"/>
<path d="M32.0345 48.0003V12.8306H38.2217V27.4846C39.0274 26.1495 40.1069 25.1074 41.4604 24.3584C42.8461 23.5769 44.4251 23.1861 46.1975 23.1861C49.1622 23.1861 51.4502 24.1305 53.0615 26.0192C54.705 27.9079 55.5267 30.6759 55.5267 34.3232V48.0003H49.3878V34.9093C49.3878 32.8252 48.9689 31.2295 48.131 30.1223C47.3254 29.0151 46.0364 28.4615 44.264 28.4615C42.5238 28.4615 41.0737 29.0803 39.9136 30.3177C38.7857 31.5552 38.2217 33.2811 38.2217 35.4955V48.0003H32.0345Z" fill="#200394"/>
<path d="M73.0927 48.5864C70.6758 48.5864 68.5328 48.0654 66.6637 47.0233C64.7947 45.9813 63.3284 44.5159 62.265 42.6271C61.2015 40.7384 60.6698 38.5566 60.6698 36.0816C60.6698 33.5742 61.1854 31.3435 62.2166 29.3896C63.2801 27.4358 64.7302 25.9215 66.5671 24.8469C68.4361 23.7397 70.6275 23.1861 73.141 23.1861C75.4935 23.1861 77.572 23.7071 79.3766 24.7492C81.1812 25.7913 82.5831 27.2241 83.582 29.0477C84.6132 30.8388 85.1289 32.8415 85.1289 35.0559C85.1289 35.4141 85.1127 35.7886 85.0805 36.1793C85.0805 36.5701 85.0644 36.9772 85.0322 37.4005H66.8088C66.9377 39.2893 67.5822 40.7709 68.7423 41.8456C69.9346 42.9202 71.3686 43.4575 73.0444 43.4575C74.3011 43.4575 75.3485 43.1807 76.1863 42.6271C77.0564 42.041 77.7009 41.292 78.1198 40.3802H84.4038C83.9526 41.9107 83.1953 43.311 82.1319 44.581C81.1007 45.8184 79.8117 46.7954 78.2649 47.5118C76.7503 48.2282 75.0262 48.5864 73.0927 48.5864ZM73.141 28.2662C71.6264 28.2662 70.2891 28.7058 69.129 29.585C67.9689 30.4317 67.2277 31.7343 66.9054 33.4928H78.8449C78.7482 31.8971 78.1682 30.6271 77.1047 29.6827C76.0413 28.7383 74.7201 28.2662 73.141 28.2662Z" fill="#200394"/>
<path d="M101.996 48.0003V13.8075H115.579C119.091 13.8075 121.766 14.6379 123.603 16.2987C125.472 17.9269 126.406 20.0273 126.406 22.5999C126.406 24.7492 125.826 26.4751 124.666 27.7777C123.538 29.0477 122.153 29.9107 120.509 30.3666C122.443 30.7573 124.038 31.7343 125.295 33.2974C126.551 34.8279 127.18 36.619 127.18 38.6705C127.18 41.3734 126.213 43.6041 124.28 45.3625C122.346 47.121 119.607 48.0003 116.062 48.0003H101.996ZM108.183 28.1685H114.66C116.401 28.1685 117.738 27.7614 118.672 26.9473C119.607 26.1332 120.074 24.9771 120.074 23.4792C120.074 22.0463 119.607 20.9229 118.672 20.1087C117.77 19.2621 116.401 18.8387 114.564 18.8387H108.183V28.1685ZM108.183 42.9202H115.095C116.932 42.9202 118.35 42.4969 119.349 41.6502C120.38 40.7709 120.896 39.5498 120.896 37.9867C120.896 36.391 120.364 35.1373 119.301 34.2255C118.237 33.3137 116.803 32.8578 114.999 32.8578H108.183V42.9202Z" fill="#200394"/>
<path d="M135.681 20.011C134.553 20.011 133.618 19.6691 132.877 18.9853C132.168 18.3014 131.814 17.4384 131.814 16.3964C131.814 15.3543 132.168 14.5076 132.877 13.8563C133.618 13.1725 134.553 12.8306 135.681 12.8306C136.808 12.8306 137.727 13.1725 138.436 13.8563C139.177 14.5076 139.548 15.3543 139.548 16.3964C139.548 17.4384 139.177 18.3014 138.436 18.9853C137.727 19.6691 136.808 20.011 135.681 20.011ZM132.587 48.0003V23.7723H138.774V48.0003H132.587Z" fill="#200394"/>
<path d="M155.383 40.7709C154.223 40.7709 153.144 40.6407 152.145 40.3802L150.356 42.1875C150.904 42.4806 151.645 42.7248 152.58 42.9202C153.514 43.1156 155.029 43.311 157.123 43.5064C160.314 43.7994 162.634 44.5647 164.084 45.8022C165.534 47.0396 166.259 48.7493 166.259 50.9311C166.259 52.3639 165.873 53.7153 165.099 54.9854C164.326 56.2879 163.133 57.33 161.522 58.1116C159.911 58.9257 157.848 59.3327 155.335 59.3327C151.919 59.3327 149.164 58.6814 147.069 57.3789C144.974 56.1088 143.927 54.1875 143.927 51.6149C143.927 49.4331 144.974 47.5444 147.069 45.9487C146.425 45.6556 145.861 45.3463 145.377 45.0206C144.926 44.695 144.523 44.353 144.169 43.9948V42.8714L148.374 38.3774C146.505 36.7167 145.571 34.5837 145.571 31.9785C145.571 30.3503 145.957 28.8686 146.731 27.5335C147.536 26.1983 148.664 25.14 150.114 24.3584C151.565 23.5769 153.321 23.1861 155.383 23.1861C156.737 23.1861 157.993 23.3815 159.154 23.7723H168.241V27.5823L164.132 27.8754C164.777 29.1128 165.099 30.4805 165.099 31.9785C165.099 33.6067 164.712 35.0884 163.939 36.4236C163.166 37.7587 162.038 38.8171 160.555 39.5986C159.105 40.3802 157.381 40.7709 155.383 40.7709ZM155.383 35.984C156.64 35.984 157.671 35.642 158.477 34.9582C159.315 34.2743 159.734 33.2974 159.734 32.0274C159.734 30.7573 159.315 29.7804 158.477 29.0966C157.671 28.4127 156.64 28.0708 155.383 28.0708C154.062 28.0708 152.999 28.4127 152.193 29.0966C151.387 29.7804 150.984 30.7573 150.984 32.0274C150.984 33.2974 151.387 34.2743 152.193 34.9582C152.999 35.642 154.062 35.984 155.383 35.984ZM149.583 50.9799C149.583 52.1848 150.131 53.0803 151.226 53.6665C152.354 54.2852 153.724 54.5946 155.335 54.5946C156.882 54.5946 158.138 54.2689 159.105 53.6177C160.072 52.9989 160.555 52.1523 160.555 51.0776C160.555 50.1984 160.233 49.4657 159.589 48.8795C158.976 48.2934 157.736 47.9351 155.867 47.8049C154.545 47.7072 153.321 47.5606 152.193 47.3653C151.258 47.8863 150.582 48.4562 150.163 49.0749C149.776 49.6936 149.583 50.3286 149.583 50.9799Z" fill="#200394"/>
<path d="M199.739 48.5864C196.323 48.5864 193.391 47.8537 190.941 46.3883C188.492 44.8904 186.607 42.8225 185.286 40.1848C183.965 37.5145 183.304 34.4371 183.304 30.9527C183.304 27.4683 183.965 24.391 185.286 21.7207C186.607 19.0504 188.492 16.9663 190.941 15.4683C193.391 13.9703 196.323 13.2213 199.739 13.2213C203.799 13.2213 207.119 14.2471 209.697 16.2987C212.307 18.3177 213.934 21.1671 214.579 24.8469H207.763C207.344 22.9907 206.442 21.5416 205.056 20.4995C203.703 19.4249 201.898 18.8876 199.642 18.8876C196.516 18.8876 194.067 19.9622 192.295 22.1115C190.523 24.2607 189.636 27.2078 189.636 30.9527C189.636 34.6977 190.523 37.6447 192.295 39.794C194.067 41.9107 196.516 42.969 199.642 42.969C201.898 42.969 203.703 42.4806 205.056 41.5036C206.442 40.4941 207.344 39.1102 207.763 37.3517H214.579C213.934 40.8686 212.307 43.6203 209.697 45.6068C207.119 47.5932 203.799 48.5864 199.739 48.5864Z" fill="#200394"/>
<path d="M218.751 25.8238L221.409 13.8075H227.935L223.004 25.8238H218.751Z" fill="#200394"/>
<path d="M240.111 48.5864C237.984 48.5864 236.115 48.2445 234.503 47.5606C232.892 46.8442 231.603 45.8673 230.636 44.6298C229.67 43.3924 229.09 41.9595 228.896 40.3313H235.132C235.325 41.2757 235.841 42.0898 236.679 42.7737C237.549 43.425 238.661 43.7506 240.014 43.7506C241.367 43.7506 242.35 43.4738 242.963 42.9202C243.607 42.3666 243.929 41.7316 243.929 41.0152C243.929 39.9731 243.478 39.273 242.576 38.9148C241.674 38.524 240.417 38.1495 238.806 37.7913C237.774 37.5633 236.727 37.2865 235.664 36.9609C234.6 36.6352 233.617 36.2282 232.715 35.7397C231.845 35.2187 231.136 34.5674 230.588 33.7858C230.04 32.9717 229.766 31.9785 229.766 30.8062C229.766 28.6569 230.604 26.8496 232.28 25.3842C233.988 23.9188 236.373 23.1861 239.434 23.1861C242.27 23.1861 244.526 23.8537 246.201 25.1888C247.909 26.524 248.924 28.3639 249.247 30.7085H243.398C243.043 28.9174 241.706 28.0219 239.386 28.0219C238.226 28.0219 237.323 28.2499 236.679 28.7058C236.066 29.1617 235.76 29.7316 235.76 30.4154C235.76 31.1318 236.228 31.7017 237.162 32.1251C238.097 32.5484 239.337 32.9392 240.884 33.2974C242.56 33.6882 244.091 34.1278 245.476 34.6162C246.894 35.0721 248.022 35.7723 248.86 36.7167C249.698 37.6285 250.117 38.9473 250.117 40.6732C250.149 42.1712 249.762 43.5226 248.957 44.7275C248.151 45.9324 246.991 46.8768 245.476 47.5606C243.962 48.2445 242.173 48.5864 240.111 48.5864Z" fill="#200394"/>
</svg>
