<svg width="25" height="24" viewBox="0 0 25 24" fill="none" xmlns="http://www.w3.org/2000/svg">
<path d="M22.4168 5.96017C21.6996 6.26954 20.9191 6.4922 20.1152 6.57892C20.9498 6.08306 21.5749 5.2997 21.873 4.37579C21.0898 4.8417 20.2318 5.16841 19.3371 5.34142C18.9631 4.94163 18.5108 4.62315 18.0084 4.40581C17.506 4.18847 16.9642 4.07693 16.4168 4.07813C14.2019 4.07813 12.4207 5.87345 12.4207 8.07657C12.4207 8.38595 12.4582 8.69532 12.5191 8.99298C9.20271 8.81954 6.2449 7.23517 4.27849 4.80938C3.92019 5.42137 3.73243 6.1182 3.73474 6.82735C3.73474 8.21485 4.44021 9.43829 5.51599 10.1578C4.88202 10.1329 4.26289 9.9586 3.70896 9.64923V9.69845C3.70896 11.6414 5.0824 13.2516 6.91287 13.6219C6.56918 13.7112 6.21562 13.7568 5.86052 13.7578C5.60037 13.7578 5.35427 13.732 5.10583 13.6969C5.61208 15.2813 7.0863 16.432 8.84177 16.4695C7.46833 17.5453 5.74802 18.1781 3.88005 18.1781C3.5449 18.1781 3.23552 18.1664 2.91443 18.1289C4.6863 19.2656 6.78865 19.9219 9.05271 19.9219C16.4027 19.9219 20.4246 13.8328 20.4246 8.54767C20.4246 8.37423 20.4246 8.20079 20.4129 8.02735C21.191 7.45782 21.873 6.75235 22.4168 5.96017Z" fill="#200394"/>
</svg>
